PathFileType	4	(X/Y/Z)	33_1_33_p1_0-213_filt_butterworth.trc
DataRate	CameraRate	NumFrames	NumMarkers	Units	OrigDataRate	OrigDataStartFrame	OrigNumFrames
60.0	60.0	5	27	m	60.0	186	213
Frame#	Time	RHip			RKnee			RAnkle			RBigToe			RSmallToe			RHeel			LHip			LKnee			LAnkle			LBigToe			LSmallToe			LHeel			Neck			Head			Nose			RShoulder			RElbow			RWrist			RThumb			RIndex			RPinky			LShoulder			LElbow			LWrist			LThumb			LIndex			LPinky			
		X1	Y1	Z1	X2	Y2	Z2	X3	Y3	Z3	X4	Y4	Z4	X5	Y5	Z5	X6	Y6	Z6	X7	Y7	Z7	X8	Y8	Z8	X9	Y9	Z9	X10	Y10	Z10	X11	Y11	Z11	X12	Y12	Z12	X13	Y13	Z13	X14	Y14	Z14	X15	Y15	Z15	X16	Y16	Z16	X17	Y17	Z17	X18	Y18	Z18	X19	Y19	Z19	X20	Y20	Z20	X21	Y21	Z21	X22	Y22	Z22	X23	Y23	Z23	X24	Y24	Z24	X25	Y25	Z25	X26	Y26	Z26	X27	Y27	Z27	
186	3.1	0.27708616716888856	0.2660904980842712	0.19098366957426033	0.2504452391397945	0.49164410000806674	0.5759068460208844	0.24714376544360897	0.7138928472410504	0.9293149967651722	0.25027344325009565	0.593623524852195	1.009970883848606	0.3095260695544101	0.6474684586601859	1.0069155811038821	0.21982143563722667	0.8159503687538567	0.9805862737273924	0.05890005390326507	0.2771862770605573	0.18102210112157865	0.07198098138635176	0.536574511384197	0.5794678888945861	0.0866032646718252	0.7792916962225634	0.948993579649715	0.09279529430983233	0.5790747388931805	1.0093161846811944	0.03637698388933576	0.6499116658428075	1.0064715315199404	0.09325002719008475	0.8431568580962364	0.9822754993651466	0.1881211957328137	-0.03468730571885354	-0.3510172525864507	0.202003333884036	-0.1764561941069585	-0.5543014787146279	0.18316477276874296	-0.16996369920050655	-0.4067486142409762	0.3404111798971916	0.04496945382423495	-0.26460964723967817	0.39798570465353694	0.10664761390282038	0.01695485457841517	0.28550473450970637	0.11590061441320179	0.2601987692918722	0.17549920596506569	0.14288078747424188	0.337639597138514	0.1717222896388701	0.15713206540133923	0.3676962964653847	0.202999288849876	0.2198335245735175	0.36484767301853727	0.031556239016190014	0.03552738671263286	-0.2728076787359768	-0.004486410417552315	0.08807682053388352	-0.010043624358981785	0.09918193487849082	0.13171301020020312	0.2114377203577237	0.1793460602649413	0.12412102223052657	0.3032222134307674	0.18967015343939136	0.12793836394325092	0.3421635802591719	0.17340034056754883	0.14148813908698293	0.33799197783715534
187	3.1166666666666667	0.27692909540742056	0.2646926790048894	0.1891296997289623	0.24893362519200662	0.4950293091297222	0.5743959305727329	0.24752520863224303	0.7128730240379798	0.9278589207060282	0.2500140232156205	0.5934662433272497	1.0097442674023442	0.3111678279572311	0.6483609512456747	1.006704538945048	0.21889762273187552	0.8096266281344873	0.9784265202145499	0.05983921518076273	0.26968114769825435	0.1815185339673173	0.07184330375199963	0.533934798824421	0.5755805417770272	0.0866094632641715	0.7791845500017238	0.9489612038703685	0.09280683799627922	0.5789916757187537	1.0090768583520195	0.03673614993047891	0.6492801138664742	1.005382351981752	0.09334161258286071	0.8437148347562295	0.980626461112534	0.18757738255505116	-0.033210694929527794	-0.3509640757136648	0.19948535871063783	-0.1798881116306374	-0.5530096206761457	0.18261227993293622	-0.17226566509452432	-0.4050205288052199	0.3378547436840057	0.04991591233807382	-0.26529372011095237	0.39384172349241403	0.10670328271116788	0.015430207354647445	0.2867131691416793	0.11580354327702028	0.26033473927984885	0.17439651651357327	0.14338208231428007	0.3315260585443911	0.17144756201054376	0.15590348818172942	0.36008520825890267	0.19642953538108576	0.22806415653491693	0.3589377926553637	0.030667410375571018	0.03241061105509367	-0.27165965849320606	-0.004577472086220368	0.08737919225207365	-0.008434408313480869	0.10179587456414621	0.13401471486580216	0.21034361015781236	0.17947029989274882	0.12537946517500118	0.3001146803578335	0.18907560604665105	0.13124760919587433	0.3414997019578975	0.17516323058706373	0.14291830591508073	0.3365899252680228
188	3.1333333333333333	0.2768044112488746	0.26387476078509464	0.18789746154976825	0.24835681476151497	0.49649610949247136	0.5733254563844249	0.24788179139786676	0.7118109277850685	0.9267117093629708	0.24971327261289628	0.5936961791852539	1.0095508325377007	0.3128136906051771	0.6484068804612122	1.0062395598757512	0.21818862747937895	0.8049860108500508	0.976792178974434	0.060067605524190354	0.26466628577566	0.18210566215789306	0.07157042446521344	0.5314412984276868	0.5721939803019488	0.08658289001078102	0.7789462897076685	0.9489044808835819	0.09272682002619712	0.5787480177157713	1.0088793271247638	0.03694628990789267	0.6488742025147622	1.0048632504512278	0.09346815456558441	0.8443083213239437	0.9794648939506122	0.18577574935531446	-0.030051185936003262	-0.35086448300858675	0.19753569824398798	-0.18238891242934174	-0.5516024645072828	0.18187485579945364	-0.17554302786568743	-0.40322598847028335	0.33627759940114704	0.054599335757239666	-0.2661755532015468	0.38952596933714245	0.10855209671312382	0.012813463045593058	0.2871350299707258	0.1152717861200653	0.259523490610968	0.17379957501642812	0.14036820749852133	0.3250989176164064	0.17314652591804397	0.15249207877109322	0.3537689308237284	0.19362314250649265	0.22263821227916303	0.3522947960759142	0.029639175427454555	0.02837955429252866	-0.2701243840868853	-0.004777521571669342	0.08527203507651798	-0.00500015623101891	0.10344461969669026	0.13364016214293975	0.20964779943315817	0.18146818446829988	0.12096789412329743	0.2976614621573974	0.18985655299406012	0.1280762245479073	0.34106246483364755	0.1760101481641924	0.14350839923171674	0.3365636366763574
189	3.15	0.27664428602753577	0.26345681262774556	0.18680560797148657	0.24867590476616303	0.49817218999469715	0.5729349226373401	0.24811452030483772	0.7110461827827352	0.9261901139477343	0.2497711281018355	0.5950776783427644	1.00986496240792	0.31387780197653775	0.6475659053387113	1.0059264749346803	0.21790338489148633	0.803415994482326	0.9761115057222983	0.05993545264881572	0.2631332176761206	0.1822376829569314	0.07096889001252692	0.5273220259759115	0.5706447170894886	0.08658025912334157	0.7787704601411838	0.948847868371521	0.09269816259853056	0.5786355529855277	1.0087416783579743	0.037032980068498395	0.6486770460364555	1.0047394687121294	0.09339567097090566	0.8440876530397554	0.9789527555271078	0.18294827724027887	-0.02624731952694362	-0.3504348384268349	0.19651950028084844	-0.1835912404013596	-0.5500454795078077	0.1813199358329834	-0.17815181042902467	-0.4020885344204267	0.3357297847380436	0.05633828887691452	-0.26714974467746233	0.386091187059364	0.11107437504869998	0.010834569771685362	0.28727266948660285	0.1143821460508485	0.25761434276412776	0.17480220637117236	0.13253066314177456	0.3193148811262348	0.17554837964175907	0.1474951988737463	0.3494583873957977	0.19231598218651977	0.20752425460005375	0.34669310810748405	0.028258003467187317	0.024929919511161143	-0.2687703957591886	-0.005207148874313179	0.08256581391138525	-0.0001328514295164593	0.10392400494065555	0.13170918090983139	0.20979666689171883	0.18581506384360735	0.10970654742556307	0.2970139340221778	0.1927768903210374	0.11807680383590322	0.3406592013631772	0.1764395708549352	0.14364156313717952	0.3378143300837215
190	3.1666666666666665	0.2763750754269542	0.26310381553234413	0.18563376972789755	0.24961514931479717	0.5019021837418519	0.5728799219119819	0.2480694123037962	0.7112009475382196	0.9261411006482623	0.25043889320827567	0.5978924485110466	1.0110408684474361	0.31399702687085357	0.6476077380541349	1.006135672001379	0.21801576915866436	0.8044308602865794	0.9758191745859479	0.05969052048821142	0.2634027090153988	0.18204647043691424	0.06986910962706414	0.5199071388004811	0.5708215771258275	0.08660323887449922	0.7786362498761821	0.9488038349566532	0.09272800899219655	0.578942600824263	1.0086254726891688	0.03704794604159952	0.6487186644323406	1.0047651040880736	0.09269934680878675	0.8421486350698552	0.9784064036552131	0.18023569130528533	-0.02351530586463866	-0.3496645432151634	0.19598568268242822	-0.18420618849427178	-0.5484747829892874	0.18111406286866183	-0.179244774871714	-0.40168810475447914	0.3361329906214303	0.056212280178768996	-0.2685235574602649	0.3842199819461929	0.11509071660545245	0.009622169903191086	0.2873330213284201	0.11326576066351338	0.2549135287664661	0.1780898580579242	0.12042124175888111	0.31511992165258357	0.17711438204005703	0.14255147020168554	0.3462862719347121	0.19108631349947508	0.1924609109061977	0.342911079361862	0.02683142113272019	0.022958454392814465	-0.26795150745057045	-0.005765924509820969	0.0808248887409575	0.00476773365304607	0.10414029891925804	0.12845167753734626	0.21122126839726807	0.19168045698003064	0.09438631605996595	0.29793380580394274	0.19753411699290782	0.10387570295710181	0.34009268766688056	0.17680922319306638	0.14370247206489958	0.3397699465602365
